
<svg version="1.0" xmlns="http://www.w3.org/2000/svg" viewBox="30 30 140 140" preserveAspectRatio="xMidYMid meet">
  <g transform="translate(-82, 311)  scale(0.180000,-0.180000)" fill="black" stroke="none" >
    <path d="M870 1546 c-80 -24 -97 -34 -149 -86 -52 -52 -96 -114 -54 -77 11 9
      23 14 26 10 4 -3 14 2 22 13 8 10 15 14 15 7 0 -6 -4 -15 -10 -18 -5 -3 -26
      -33 -45 -67 -35 -59 -36 -65 -38 -167 -2 -123 12 -164 82 -243 100 -113 253
      -154 393 -107 136 45 230 151 263 293 36 154 -60 343 -213 418 -59 29 -77 33
      -157 35 -52 1 -109 -3 -135 -11z m212 -177 c15 -11 30 -28 33 -39 4 -11 20
      -27 36 -36 68 -35 90 -130 44 -190 -25 -33 -84 -60 -110 -50 -21 8 -19 36 3
      36 9 0 31 9 49 19 58 36 51 121 -13 150 -17 7 -35 25 -41 42 -7 17 -25 35 -46
      45 -47 22 -89 6 -112 -42 -9 -19 -30 -40 -50 -49 -39 -19 -59 -63 -45 -99 11
      -29 56 -66 81 -66 22 0 35 -18 21 -32 -17 -17 -79 1 -110 32 -52 51 -51 131 0
      178 16 15 50 48 75 74 25 26 55 49 66 51 36 8 89 -3 119 -24z m-90 -156 c15
      -15 28 -35 28 -45 0 -14 6 -16 30 -11 41 8 41 -22 0 -45 -26 -15 -30 -22 -30
      -64 l0 -47 37 -3 c27 -2 39 -8 41 -21 3 -16 -5 -17 -100 -15 -84 2 -103 6
      -103 18 0 10 12 16 38 18 l37 3 0 86 c0 74 -3 90 -21 109 -21 22 -19 44 4 44
      6 0 24 -12 39 -27z"/>
    <path d="M680 1380 c0 -7 3 -10 7 -7 3 4 3 10 0 14 -4 3 -7 0 -7 -7z"/>
  </g>
</svg>
