<svg version="1.0" xmlns="http://www.w3.org/2000/svg" viewBox="30 129 140 30" preserveAspectRatio="xMidYMid meet">
  <g transform="translate(0.000000,200.000000) scale(0.100000,-0.100000)" fill="green" stroke="none">
    <path d="M1175 658 c-5 -16 -35 -155 -35 -162 0 -4 3 -6 8 -6 7 0 23 61 38
      143 6 34 -2 52 -11 25z"/>
    <path d="M780 650 c0 -5 5 -10 10 -10 6 0 10 5 10 10 0 6 -4 10 -10 10 -5 0
      -10 -4 -10 -10z"/>
    <path d="M890 647 c-32 -16 -64 -80 -56 -112 9 -36 51 -61 79 -47 21 10 20 11
      -11 11 -41 1 -56 32 -41 85 11 39 33 56 76 56 22 0 25 2 13 10 -20 13 -30 12
      -60 -3z"/>
    <path d="M371 575 c-23 -41 -41 -77 -41 -80 0 -15 18 -2 28 20 9 19 19 25 42
      25 25 0 30 -4 30 -25 0 -14 5 -25 11 -25 7 0 8 24 3 73 -10 113 -17 114 -73
      12z m58 -2 c1 -7 -10 -13 -24 -13 l-25 0 18 36 c16 35 17 35 23 13 4 -13 7
      -30 8 -36z"/>
    <path d="M1238 619 c-10 -10 -15 -19 -10 -19 4 0 7 -26 7 -57 0 -47 3 -58 18
      -61 9 -2 17 1 17 7 0 6 -7 11 -15 11 -18 0 -19 12 -5 62 6 20 18 39 28 41 15
      4 15 5 -2 6 -12 1 -16 6 -12 16 7 20 -5 18 -26 -6z"/>
    <path d="M511 588 c-5 -13 -5 -31 1 -40 5 -12 5 -18 -2 -18 -5 0 -10 -7 -10
      -16 0 -9 -8 -23 -17 -30 -41 -30 29 -70 77 -44 32 17 22 51 -18 64 -33 11 -34
      26 -2 26 21 0 50 31 50 52 0 9 6 19 13 21 6 3 -10 6 -36 6 -41 1 -49 -2 -56
      -21z m57 -10 c-3 -23 -48 -41 -48 -20 0 24 14 42 32 42 14 0 19 -6 16 -22z
      m-10 -97 c11 -6 10 -11 -3 -25 -30 -29 -75 -15 -61 19 6 16 43 20 64 6z"/>
    <path d="M656 600 c-13 -41 -24 -105 -20 -109 7 -8 24 21 24 42 0 28 19 57 43
      67 16 6 18 9 5 9 -9 1 -20 -4 -24 -10 -4 -8 -9 -7 -15 2 -6 11 -9 11 -13 -1z"/>
      <path d="M761 566 c-12 -49 -14 -83 -5 -73 11 10 33 117 24 117 -4 0 -13 -20
      -19 -44z"/>
    <path d="M1006 602 c-4 -6 -9 -33 -13 -60 -4 -40 -2 -50 12 -55 9 -4 24 -3 33
      2 9 4 22 7 28 4 6 -2 16 19 22 48 14 61 15 69 3 69 -5 0 -11 -17 -15 -38 -6
      -42 -37 -78 -60 -69 -11 5 -12 14 -5 48 10 45 8 71 -5 51z"/>
    <path d="M1337 603 c-3 -5 -8 -29 -12 -54 -8 -52 10 -78 42 -61 10 5 23 7 30
      5 7 -2 15 16 22 47 14 63 14 70 1 70 -5 0 -10 -11 -10 -25 0 -40 -27 -85 -52
      -85 -19 0 -20 4 -14 55 6 51 4 65 -7 48z"/>
    <path d="M1486 573 c-3 -21 -9 -48 -12 -60 -12 -45 13 -22 27 24 9 32 22 52
      39 60 15 8 19 13 10 13 -9 0 -21 -5 -28 -12 -9 -9 -12 -9 -12 0 0 28 -18 9
      -24 -25z"/>
    <path d="M1606 588 c-23 -33 -21 -85 4 -98 21 -11 60 -5 60 9 0 5 -12 6 -26 3
      -16 -3 -30 1 -35 9 -13 20 -11 29 6 29 32 0 65 23 65 47 0 19 -5 23 -29 23
      -20 0 -35 -8 -45 -22z m57 5 c11 -10 -13 -33 -35 -33 -16 0 -17 3 -8 20 11 20
      31 26 43 13z"/>
  </g>
</svg>
